<mxfile host="app.diagrams.net" modified="2020-12-30T10:15:27.614Z" agent="5.0 (Windows NT 10.0; Win64; x64) AppleWebKit/537.36 (KHTML, like Gecko) Chrome/80.0.3987.132 Safari/537.36" etag="1kEc45K-onW0UIa6s29r" version="14.1.3" type="github">
  <diagram name="Page-1" id="e7e014a7-5840-1c2e-5031-d8a46d1fe8dd">
    <mxGraphModel dx="1108" dy="450" grid="1" gridSize="10" guides="1" tooltips="1" connect="1" arrows="1" fold="1" page="1" pageScale="1" pageWidth="1169" pageHeight="826" background="#ffffff" math="0" shadow="0">
      <root>
        <mxCell id="0" />
        <mxCell id="1" parent="0" />
        <mxCell id="Y6z0Pcbur20BkrsbBS4W-53" value="&lt;p class=&quot;MsoNormal&quot;&gt;&lt;span style=&quot;font-family: &amp;#34;times new roman&amp;#34;&quot;&gt;&lt;font style=&quot;font-size: 24px&quot;&gt;bank management system&lt;/font&gt;&lt;/span&gt;&lt;/p&gt;" style="text;html=1;align=center;verticalAlign=middle;resizable=0;points=[];autosize=1;" parent="1" vertex="1">
          <mxGeometry x="40" y="80" width="260" height="50" as="geometry" />
        </mxCell>
        <mxCell id="Y6z0Pcbur20BkrsbBS4W-179" value="Account" style="swimlane;fontStyle=1;align=center;verticalAlign=top;childLayout=stackLayout;horizontal=1;startSize=26;horizontalStack=0;resizeParent=1;resizeParentMax=0;resizeLast=0;collapsible=1;marginBottom=0;" parent="1" vertex="1">
          <mxGeometry x="130" y="1350" width="339.38" height="250" as="geometry" />
        </mxCell>
        <mxCell id="Y6z0Pcbur20BkrsbBS4W-180" value="-accountNumber:String&#xa;-blance:BigDecimal" style="text;strokeColor=none;fillColor=#FFFFFF;align=left;verticalAlign=top;spacingLeft=4;spacingRight=4;overflow=hidden;rotatable=0;points=[[0,0.5],[1,0.5]];portConstraint=eastwest;" parent="Y6z0Pcbur20BkrsbBS4W-179" vertex="1">
          <mxGeometry y="26" width="339.38" height="44" as="geometry" />
        </mxCell>
        <mxCell id="Y6z0Pcbur20BkrsbBS4W-181" value="" style="line;strokeWidth=1;fillColor=none;align=left;verticalAlign=middle;spacingTop=-1;spacingLeft=3;spacingRight=3;rotatable=0;labelPosition=right;points=[];portConstraint=eastwest;" parent="Y6z0Pcbur20BkrsbBS4W-179" vertex="1">
          <mxGeometry y="70" width="339.38" height="8" as="geometry" />
        </mxCell>
        <mxCell id="Y6z0Pcbur20BkrsbBS4W-182" value="+ getAccountNumber():String&#xa;+getBalance():BigDecimal&#xa;+withdralAccount(trans: Transaction ) :void&#xa;+depositAccount( trans: Transaction):void&#xa;+transferAccount(trans: Transaction,accountNo:String):void&#xa;+useCard(trans: Transaction):void&#xa;+getAccountType():AccountTypeEnum&#xa;+getTransFunction():List&lt;TransTypeEnum&gt;&#xa;+checkTransAmount(trans: Transaction):void&#xa;+queryCustomerByAccountNumber(String):Customer&#xa;+tranSingleAccountOper(trans: Transaction)" style="text;strokeColor=none;fillColor=none;align=left;verticalAlign=top;spacingLeft=4;spacingRight=4;overflow=hidden;rotatable=0;points=[[0,0.5],[1,0.5]];portConstraint=eastwest;" parent="Y6z0Pcbur20BkrsbBS4W-179" vertex="1">
          <mxGeometry y="78" width="339.38" height="172" as="geometry" />
        </mxCell>
        <mxCell id="Y6z0Pcbur20BkrsbBS4W-183" value="Customer" style="swimlane;fontStyle=1;align=center;verticalAlign=top;childLayout=stackLayout;horizontal=1;startSize=26;horizontalStack=0;resizeParent=1;resizeParentMax=0;resizeLast=0;collapsible=1;marginBottom=0;" parent="1" vertex="1">
          <mxGeometry x="640.62" y="1350" width="480" height="260" as="geometry" />
        </mxCell>
        <mxCell id="Y6z0Pcbur20BkrsbBS4W-184" value="-custName:String&#xa;-custId:Long&#xa;-brithDate: LocalDate&#xa;-accountList:List&lt;Account&gt;" style="text;strokeColor=none;fillColor=none;align=left;verticalAlign=top;spacingLeft=4;spacingRight=4;overflow=hidden;rotatable=0;points=[[0,0.5],[1,0.5]];portConstraint=eastwest;" parent="Y6z0Pcbur20BkrsbBS4W-183" vertex="1">
          <mxGeometry y="26" width="480" height="64" as="geometry" />
        </mxCell>
        <mxCell id="Y6z0Pcbur20BkrsbBS4W-185" value="" style="line;strokeWidth=1;fillColor=none;align=left;verticalAlign=middle;spacingTop=-1;spacingLeft=3;spacingRight=3;rotatable=0;labelPosition=right;points=[];portConstraint=eastwest;" parent="Y6z0Pcbur20BkrsbBS4W-183" vertex="1">
          <mxGeometry y="90" width="480" height="8" as="geometry" />
        </mxCell>
        <mxCell id="Y6z0Pcbur20BkrsbBS4W-186" value="+ getCustName():String&#xa;+ getCustId():Long&#xa;+ getBirthDate():LocalDate&#xa;+ getAccountList():List&lt;Account&gt;&#xa;- checkAccountNumber():void&#xa;- checkOpenAccountType(accountTypeEnum:AccountTypeEnum):void&#xa;- checkAgePrinciple(accountTypeEnum:AccountTypeEnum):void&#xa;+ openAccount(accountTypeEnum:AccountTypeEnum, amount:Bigdecimal): void&#xa;+ deleteAccount(): void&#xa;+ deleteAllAccount(): void&#xa;+ queryCustomerByCustId(custId:Long) :Customer" style="text;strokeColor=none;fillColor=none;align=left;verticalAlign=top;spacingLeft=4;spacingRight=4;overflow=hidden;rotatable=0;points=[[0,0.5],[1,0.5]];portConstraint=eastwest;" parent="Y6z0Pcbur20BkrsbBS4W-183" vertex="1">
          <mxGeometry y="98" width="480" height="162" as="geometry" />
        </mxCell>
        <mxCell id="Y6z0Pcbur20BkrsbBS4W-188" value="&lt;p style=&quot;margin: 0px ; margin-top: 4px ; text-align: center&quot;&gt;&lt;i&gt;&amp;lt;&amp;lt;Interface&amp;gt;&amp;gt;&lt;/i&gt;&lt;br&gt;&lt;b&gt;TransactionOperation&lt;/b&gt;&lt;/p&gt;&lt;hr size=&quot;1&quot;&gt;&lt;p style=&quot;margin: 0px ; margin-left: 4px&quot;&gt;&lt;/p&gt;&lt;p style=&quot;margin: 0px ; margin-left: 4px&quot;&gt;+ withdralAccount(trans: Transaction):void&lt;br&gt;+ depositAccount(trans: Transaction):void&lt;/p&gt;&lt;p style=&quot;margin: 0px ; margin-left: 4px&quot;&gt;+ transferAccount(trans: Transaction,accountNo String) : void&lt;/p&gt;&lt;p style=&quot;margin: 0px ; margin-left: 4px&quot;&gt;+ useCard(trans: Transaction): void&lt;/p&gt;" style="verticalAlign=top;align=left;overflow=fill;fontSize=12;fontFamily=Helvetica;html=1;strokeColor=#333333;fillColor=#FFFFFF;" parent="1" vertex="1">
          <mxGeometry x="119.69" y="1860" width="360" height="140" as="geometry" />
        </mxCell>
        <mxCell id="Y6z0Pcbur20BkrsbBS4W-190" value="" style="endArrow=block;dashed=1;endFill=0;endSize=12;html=1;exitX=0.494;exitY=1.005;exitDx=0;exitDy=0;exitPerimeter=0;" parent="1" source="Y6z0Pcbur20BkrsbBS4W-182" target="Y6z0Pcbur20BkrsbBS4W-188" edge="1">
          <mxGeometry width="160" relative="1" as="geometry">
            <mxPoint x="150.62" y="1630" as="sourcePoint" />
            <mxPoint x="310.62" y="1630" as="targetPoint" />
          </mxGeometry>
        </mxCell>
        <mxCell id="Y6z0Pcbur20BkrsbBS4W-191" value="&lt;p style=&quot;margin: 0px ; margin-top: 4px ; text-align: center&quot;&gt;&lt;i&gt;&amp;lt;&amp;lt;Interface&amp;gt;&amp;gt;&lt;/i&gt;&lt;br&gt;&lt;b&gt;CustomerOperation&lt;/b&gt;&lt;/p&gt;&lt;hr size=&quot;1&quot;&gt;&lt;p style=&quot;margin: 0px ; margin-left: 4px&quot;&gt;&lt;/p&gt;&amp;nbsp;+ openAccount(accountTypeEnum:AccountTypeEnum, amount:Bigdecimal): void&lt;p style=&quot;margin: 0px ; margin-left: 4px&quot;&gt;+ deleteAccount():void&lt;/p&gt;&lt;p style=&quot;margin: 0px ; margin-left: 4px&quot;&gt;+ deleteAllAccount():void&lt;/p&gt;" style="verticalAlign=top;align=left;overflow=fill;fontSize=12;fontFamily=Helvetica;html=1;strokeColor=#333333;fillColor=#FFFFFF;" parent="1" vertex="1">
          <mxGeometry x="645.62" y="1860" width="470" height="120" as="geometry" />
        </mxCell>
        <mxCell id="Y6z0Pcbur20BkrsbBS4W-192" value="" style="endArrow=block;dashed=1;endFill=0;endSize=12;html=1;exitX=0.502;exitY=1.015;exitDx=0;exitDy=0;exitPerimeter=0;entryX=0.5;entryY=0;entryDx=0;entryDy=0;" parent="1" source="Y6z0Pcbur20BkrsbBS4W-186" target="Y6z0Pcbur20BkrsbBS4W-191" edge="1">
          <mxGeometry width="160" relative="1" as="geometry">
            <mxPoint x="881.2999999999998" y="1579.9999999999998" as="sourcePoint" />
            <mxPoint x="882.4338022198671" y="1689.29" as="targetPoint" />
          </mxGeometry>
        </mxCell>
        <mxCell id="Y6z0Pcbur20BkrsbBS4W-193" value="DebitAccount" style="swimlane;fontStyle=1;align=center;verticalAlign=top;childLayout=stackLayout;horizontal=1;startSize=26;horizontalStack=0;resizeParent=1;resizeParentMax=0;resizeLast=0;collapsible=1;marginBottom=0;strokeColor=#333333;fillColor=#FFFFFF;" parent="1" vertex="1">
          <mxGeometry x="40" y="1040" width="280" height="140" as="geometry" />
        </mxCell>
        <mxCell id="Y6z0Pcbur20BkrsbBS4W-194" value="- card:Long" style="text;strokeColor=none;fillColor=none;align=left;verticalAlign=top;spacingLeft=4;spacingRight=4;overflow=hidden;rotatable=0;points=[[0,0.5],[1,0.5]];portConstraint=eastwest;" parent="Y6z0Pcbur20BkrsbBS4W-193" vertex="1">
          <mxGeometry y="26" width="280" height="26" as="geometry" />
        </mxCell>
        <mxCell id="Y6z0Pcbur20BkrsbBS4W-195" value="" style="line;strokeWidth=1;fillColor=none;align=left;verticalAlign=middle;spacingTop=-1;spacingLeft=3;spacingRight=3;rotatable=0;labelPosition=right;points=[];portConstraint=eastwest;" parent="Y6z0Pcbur20BkrsbBS4W-193" vertex="1">
          <mxGeometry y="52" width="280" height="8" as="geometry" />
        </mxCell>
        <mxCell id="Y6z0Pcbur20BkrsbBS4W-196" value="+ getCard():Long&#xa;+ getAccountType():AccountTypeEnum&#xa;+ checkTransAmount(trans Transaction): void" style="text;strokeColor=none;fillColor=none;align=left;verticalAlign=top;spacingLeft=4;spacingRight=4;overflow=hidden;rotatable=0;points=[[0,0.5],[1,0.5]];portConstraint=eastwest;" parent="Y6z0Pcbur20BkrsbBS4W-193" vertex="1">
          <mxGeometry y="60" width="280" height="80" as="geometry" />
        </mxCell>
        <mxCell id="Y6z0Pcbur20BkrsbBS4W-201" value="CreditAccount" style="swimlane;fontStyle=1;align=center;verticalAlign=top;childLayout=stackLayout;horizontal=1;startSize=26;horizontalStack=0;resizeParent=1;resizeParentMax=0;resizeLast=0;collapsible=1;marginBottom=0;strokeColor=#333333;fillColor=#FFFFFF;" parent="1" vertex="1">
          <mxGeometry x="349.69" y="1040" width="280" height="140" as="geometry" />
        </mxCell>
        <mxCell id="Y6z0Pcbur20BkrsbBS4W-202" value="- card:Long" style="text;strokeColor=none;fillColor=none;align=left;verticalAlign=top;spacingLeft=4;spacingRight=4;overflow=hidden;rotatable=0;points=[[0,0.5],[1,0.5]];portConstraint=eastwest;" parent="Y6z0Pcbur20BkrsbBS4W-201" vertex="1">
          <mxGeometry y="26" width="280" height="26" as="geometry" />
        </mxCell>
        <mxCell id="Y6z0Pcbur20BkrsbBS4W-203" value="" style="line;strokeWidth=1;fillColor=none;align=left;verticalAlign=middle;spacingTop=-1;spacingLeft=3;spacingRight=3;rotatable=0;labelPosition=right;points=[];portConstraint=eastwest;" parent="Y6z0Pcbur20BkrsbBS4W-201" vertex="1">
          <mxGeometry y="52" width="280" height="8" as="geometry" />
        </mxCell>
        <mxCell id="Y6z0Pcbur20BkrsbBS4W-204" value="+ getCard():Long&#xa;+ getAccountType():AccountTypeEnum&#xa;&#xa;" style="text;strokeColor=none;fillColor=none;align=left;verticalAlign=top;spacingLeft=4;spacingRight=4;overflow=hidden;rotatable=0;points=[[0,0.5],[1,0.5]];portConstraint=eastwest;" parent="Y6z0Pcbur20BkrsbBS4W-201" vertex="1">
          <mxGeometry y="60" width="280" height="80" as="geometry" />
        </mxCell>
        <mxCell id="Y6z0Pcbur20BkrsbBS4W-212" value="SavingsAccount" style="swimlane;fontStyle=1;align=center;verticalAlign=top;childLayout=stackLayout;horizontal=1;startSize=26;horizontalStack=0;resizeParent=1;resizeParentMax=0;resizeLast=0;collapsible=1;marginBottom=0;strokeColor=#333333;fillColor=#FFFFFF;" parent="1" vertex="1">
          <mxGeometry x="670" y="1040" width="280" height="160" as="geometry" />
        </mxCell>
        <mxCell id="Y6z0Pcbur20BkrsbBS4W-213" value="- interestRate: BigDecimal" style="text;strokeColor=none;fillColor=none;align=left;verticalAlign=top;spacingLeft=4;spacingRight=4;overflow=hidden;rotatable=0;points=[[0,0.5],[1,0.5]];portConstraint=eastwest;" parent="Y6z0Pcbur20BkrsbBS4W-212" vertex="1">
          <mxGeometry y="26" width="280" height="26" as="geometry" />
        </mxCell>
        <mxCell id="Y6z0Pcbur20BkrsbBS4W-214" value="" style="line;strokeWidth=1;fillColor=none;align=left;verticalAlign=middle;spacingTop=-1;spacingLeft=3;spacingRight=3;rotatable=0;labelPosition=right;points=[];portConstraint=eastwest;" parent="Y6z0Pcbur20BkrsbBS4W-212" vertex="1">
          <mxGeometry y="52" width="280" height="8" as="geometry" />
        </mxCell>
        <mxCell id="Y6z0Pcbur20BkrsbBS4W-215" value="+ getinterestRate():BigDecimal&#xa;+ getAccountType():AccountTypeEnum&#xa;+ getTransFunction():List&lt;TransTypeEnum&gt;&#xa;+ checkTransAmount( trans:Transaction):void&#xa;+ withdralAccount(trans: Transaction ) :void&#xa;+ useCard(trans: Transaction):void" style="text;strokeColor=none;fillColor=none;align=left;verticalAlign=top;spacingLeft=4;spacingRight=4;overflow=hidden;rotatable=0;points=[[0,0.5],[1,0.5]];portConstraint=eastwest;" parent="Y6z0Pcbur20BkrsbBS4W-212" vertex="1">
          <mxGeometry y="60" width="280" height="100" as="geometry" />
        </mxCell>
        <mxCell id="Y6z0Pcbur20BkrsbBS4W-226" value="Transaction" style="swimlane;fontStyle=1;align=center;verticalAlign=top;childLayout=stackLayout;horizontal=1;startSize=26;horizontalStack=0;resizeParent=1;resizeParentMax=0;resizeLast=0;collapsible=1;marginBottom=0;strokeColor=#333333;fillColor=#FFFFFF;" parent="1" vertex="1">
          <mxGeometry x="429.38" y="1700" width="340" height="150" as="geometry" />
        </mxCell>
        <mxCell id="Y6z0Pcbur20BkrsbBS4W-227" value="- transId: String&#xa;- transType: transTypeEnum&#xa;- amount: BigDecimal" style="text;strokeColor=none;fillColor=none;align=left;verticalAlign=top;spacingLeft=4;spacingRight=4;overflow=hidden;rotatable=0;points=[[0,0.5],[1,0.5]];portConstraint=eastwest;" parent="Y6z0Pcbur20BkrsbBS4W-226" vertex="1">
          <mxGeometry y="26" width="340" height="54" as="geometry" />
        </mxCell>
        <mxCell id="Y6z0Pcbur20BkrsbBS4W-228" value="" style="line;strokeWidth=1;fillColor=none;align=left;verticalAlign=middle;spacingTop=-1;spacingLeft=3;spacingRight=3;rotatable=0;labelPosition=right;points=[];portConstraint=eastwest;" parent="Y6z0Pcbur20BkrsbBS4W-226" vertex="1">
          <mxGeometry y="80" width="340" height="8" as="geometry" />
        </mxCell>
        <mxCell id="Y6z0Pcbur20BkrsbBS4W-229" value="+ getTransId(): String&#xa;+ getTransType():TransTypeEnum&#xa;+ getAmount(): BigDecimal&#xa;" style="text;strokeColor=none;fillColor=none;align=left;verticalAlign=top;spacingLeft=4;spacingRight=4;overflow=hidden;rotatable=0;points=[[0,0.5],[1,0.5]];portConstraint=eastwest;" parent="Y6z0Pcbur20BkrsbBS4W-226" vertex="1">
          <mxGeometry y="88" width="340" height="62" as="geometry" />
        </mxCell>
        <mxCell id="Y6z0Pcbur20BkrsbBS4W-243" value="1" style="text;html=1;align=center;verticalAlign=middle;resizable=0;points=[];autosize=1;" parent="1" vertex="1">
          <mxGeometry x="620.62" y="1460" width="20" height="20" as="geometry" />
        </mxCell>
        <mxCell id="Y6z0Pcbur20BkrsbBS4W-244" value="&lt;font style=&quot;font-size: 24px&quot;&gt;*&lt;/font&gt;" style="text;html=1;align=center;verticalAlign=middle;resizable=0;points=[];autosize=1;" parent="1" vertex="1">
          <mxGeometry x="469.38" y="1465" width="20" height="20" as="geometry" />
        </mxCell>
        <mxCell id="Y6z0Pcbur20BkrsbBS4W-266" value="&lt;p style=&quot;margin: 0px ; margin-top: 4px ; text-align: center&quot;&gt;&lt;i&gt;&amp;lt;&amp;lt;Enum&amp;gt;&amp;gt;&lt;/i&gt;&lt;br&gt;TransTypeEnum&lt;br&gt;&lt;/p&gt;&lt;hr size=&quot;1&quot;&gt;&lt;p style=&quot;margin: 0px ; margin-left: 4px&quot;&gt;withdrawal&lt;/p&gt;&lt;p style=&quot;margin: 0px ; margin-left: 4px&quot;&gt;deposit&lt;/p&gt;&lt;p style=&quot;margin: 0px ; margin-left: 4px&quot;&gt;transfer&lt;/p&gt;&lt;p style=&quot;margin: 0px ; margin-left: 4px&quot;&gt;card&lt;br&gt;-transCode : String&lt;/p&gt;&lt;p style=&quot;margin: 0px ; margin-left: 4px&quot;&gt;-name:&amp;nbsp;String&lt;/p&gt;&lt;p style=&quot;margin: 0px ; margin-left: 4px&quot;&gt;&lt;br&gt;&lt;/p&gt;&lt;hr size=&quot;1&quot;&gt;&lt;p style=&quot;margin: 0px ; margin-left: 4px&quot;&gt;&lt;br&gt;&lt;/p&gt;&lt;p style=&quot;margin: 0px ; margin-left: 4px&quot;&gt;+ getTransCode() :String&lt;br&gt;+ getName():String&lt;/p&gt;&lt;p style=&quot;margin: 0px ; margin-left: 4px&quot;&gt;+ getTransTypeEnumByName(String):TransTypeEnum&lt;/p&gt;&lt;span style=&quot;text-align: center&quot;&gt;&amp;nbsp;+ getTransTypeEnumByCode(String):TransTypeEnum&lt;br&gt;&lt;/span&gt;&lt;br&gt;&lt;p style=&quot;margin: 0px ; margin-left: 4px&quot;&gt;&lt;br&gt;&lt;/p&gt;&amp;nbsp;" style="verticalAlign=top;align=left;overflow=fill;fontSize=12;fontFamily=Helvetica;html=1;strokeColor=#333333;fillColor=#FFFFFF;" parent="1" vertex="1">
          <mxGeometry x="450" y="2040" width="298.76" height="240" as="geometry" />
        </mxCell>
        <mxCell id="Y6z0Pcbur20BkrsbBS4W-272" value="1" style="text;html=1;align=center;verticalAlign=middle;resizable=0;points=[];autosize=1;" parent="1" vertex="1">
          <mxGeometry x="609.69" y="1860" width="20" height="20" as="geometry" />
        </mxCell>
        <mxCell id="Y6z0Pcbur20BkrsbBS4W-274" value="1" style="text;html=1;align=center;verticalAlign=middle;resizable=0;points=[];autosize=1;" parent="1" vertex="1">
          <mxGeometry x="600.62" y="2010" width="20" height="20" as="geometry" />
        </mxCell>
        <mxCell id="Y6z0Pcbur20BkrsbBS4W-285" value="&lt;p style=&quot;margin: 0px ; margin-top: 4px ; text-align: center&quot;&gt;&lt;i&gt;&amp;lt;&amp;lt;Enum&amp;gt;&amp;gt;&lt;/i&gt;&lt;br&gt;AccountTypeEnum&lt;br&gt;&lt;/p&gt;&lt;hr size=&quot;1&quot;&gt;&lt;p style=&quot;margin: 0px ; margin-left: 4px&quot;&gt;credit&lt;/p&gt;&lt;p style=&quot;margin: 0px ; margin-left: 4px&quot;&gt;debit&lt;/p&gt;&lt;p style=&quot;margin: 0px ; margin-left: 4px&quot;&gt;savings&lt;/p&gt;&lt;p style=&quot;margin: 0px ; margin-left: 4px&quot;&gt;-accountType : String&lt;/p&gt;&lt;p style=&quot;margin: 0px ; margin-left: 4px&quot;&gt;-description:&amp;nbsp;String&lt;/p&gt;&lt;p style=&quot;margin: 0px ; margin-left: 4px&quot;&gt;&lt;br&gt;&lt;/p&gt;&lt;hr size=&quot;1&quot;&gt;&lt;p style=&quot;margin: 0px ; margin-left: 4px&quot;&gt;- AccountTypeEnum(accountType:String,description: String)&lt;/p&gt;&lt;p style=&quot;margin: 0px ; margin-left: 4px&quot;&gt;+ getAccountType() :String&lt;br&gt;+ getDescription():String&lt;/p&gt;&lt;p style=&quot;margin: 0px ; margin-left: 4px&quot;&gt;&lt;br&gt;&lt;/p&gt;&lt;p style=&quot;margin: 0px ; margin-left: 4px&quot;&gt;&lt;br&gt;&lt;/p&gt;&amp;nbsp;" style="verticalAlign=top;align=left;overflow=fill;fontSize=12;fontFamily=Helvetica;html=1;strokeColor=#333333;fillColor=#FFFFFF;" parent="1" vertex="1">
          <mxGeometry x="284.69" y="620" width="410" height="190" as="geometry" />
        </mxCell>
        <mxCell id="Y6z0Pcbur20BkrsbBS4W-307" value="FileReaderAndWrite" style="swimlane;fontStyle=1;align=center;verticalAlign=top;childLayout=stackLayout;horizontal=1;startSize=30;horizontalStack=0;resizeParent=1;resizeParentMax=0;resizeLast=0;collapsible=1;marginBottom=0;strokeColor=#333333;fillColor=#FFFFFF;" parent="1" vertex="1">
          <mxGeometry x="1130" y="1848" width="530" height="162" as="geometry">
            <mxRectangle x="870" y="2100" width="150" height="30" as="alternateBounds" />
          </mxGeometry>
        </mxCell>
        <mxCell id="Y6z0Pcbur20BkrsbBS4W-310" value="+ loadData(customer: List&lt;Customer&gt;):void&#xa;+ loadCustomers(customer: List&lt;Customer&gt; ):void&#xa;+ loadCreditAccounts(customer: List&lt;Customer&gt;):void&#xa;+ loadDebitAccounts(customer: List&lt;Customer&gt;):void&#xa;+ loadSavingsAccounts(customer: List&lt;Customer&gt; ): void&#xa;+ writeAccount(account: Account, custId: Long, trans: Transaction, accountOperate: String) : void&#xa;+ writeTransRecord(account: Account, custId: Long, trans Transaction):void&#xa;+ getCurrentKeys(code:String) void" style="text;strokeColor=none;fillColor=none;align=left;verticalAlign=top;spacingLeft=4;spacingRight=4;overflow=hidden;rotatable=0;points=[[0,0.5],[1,0.5]];portConstraint=eastwest;" parent="Y6z0Pcbur20BkrsbBS4W-307" vertex="1">
          <mxGeometry y="30" width="530" height="132" as="geometry" />
        </mxCell>
        <mxCell id="x0OXfMmSiJZp11NWUhel-1" value="KeyGenerator" style="swimlane;fontStyle=1;align=center;verticalAlign=top;childLayout=stackLayout;horizontal=1;startSize=26;horizontalStack=0;resizeParent=1;resizeParentMax=0;resizeLast=0;collapsible=1;marginBottom=0;" parent="1" vertex="1">
          <mxGeometry x="1290" y="1430" width="160" height="138" as="geometry" />
        </mxCell>
        <mxCell id="x0OXfMmSiJZp11NWUhel-2" value="+ cardId: Long" style="text;strokeColor=none;fillColor=none;align=left;verticalAlign=top;spacingLeft=4;spacingRight=4;overflow=hidden;rotatable=0;points=[[0,0.5],[1,0.5]];portConstraint=eastwest;" parent="x0OXfMmSiJZp11NWUhel-1" vertex="1">
          <mxGeometry y="26" width="160" height="26" as="geometry" />
        </mxCell>
        <mxCell id="x0OXfMmSiJZp11NWUhel-5" value="+ ibanNo: Long" style="text;strokeColor=none;fillColor=none;align=left;verticalAlign=top;spacingLeft=4;spacingRight=4;overflow=hidden;rotatable=0;points=[[0,0.5],[1,0.5]];portConstraint=eastwest;" parent="x0OXfMmSiJZp11NWUhel-1" vertex="1">
          <mxGeometry y="52" width="160" height="26" as="geometry" />
        </mxCell>
        <mxCell id="x0OXfMmSiJZp11NWUhel-3" value="" style="line;strokeWidth=1;fillColor=none;align=left;verticalAlign=middle;spacingTop=-1;spacingLeft=3;spacingRight=3;rotatable=0;labelPosition=right;points=[];portConstraint=eastwest;" parent="x0OXfMmSiJZp11NWUhel-1" vertex="1">
          <mxGeometry y="78" width="160" height="8" as="geometry" />
        </mxCell>
        <mxCell id="x0OXfMmSiJZp11NWUhel-4" value="+ getCardIdKey(): Long" style="text;strokeColor=none;fillColor=none;align=left;verticalAlign=top;spacingLeft=4;spacingRight=4;overflow=hidden;rotatable=0;points=[[0,0.5],[1,0.5]];portConstraint=eastwest;" parent="x0OXfMmSiJZp11NWUhel-1" vertex="1">
          <mxGeometry y="86" width="160" height="26" as="geometry" />
        </mxCell>
        <mxCell id="x0OXfMmSiJZp11NWUhel-7" value="+ getIbanKey(): String" style="text;strokeColor=none;fillColor=none;align=left;verticalAlign=top;spacingLeft=4;spacingRight=4;overflow=hidden;rotatable=0;points=[[0,0.5],[1,0.5]];portConstraint=eastwest;" parent="x0OXfMmSiJZp11NWUhel-1" vertex="1">
          <mxGeometry y="112" width="160" height="26" as="geometry" />
        </mxCell>
        <mxCell id="WE6ekmEGEr7F3nznhlLz-15" value="CustomerPanel" style="swimlane;fontStyle=1;align=center;verticalAlign=top;childLayout=stackLayout;horizontal=1;startSize=26;horizontalStack=0;resizeParent=1;resizeParentMax=0;resizeLast=0;collapsible=1;marginBottom=0;" parent="1" vertex="1">
          <mxGeometry x="1410" y="1239" width="190" height="86" as="geometry" />
        </mxCell>
        <mxCell id="WE6ekmEGEr7F3nznhlLz-16" value="- contantPane: JPanel" style="text;strokeColor=none;fillColor=none;align=left;verticalAlign=top;spacingLeft=4;spacingRight=4;overflow=hidden;rotatable=0;points=[[0,0.5],[1,0.5]];portConstraint=eastwest;" parent="WE6ekmEGEr7F3nznhlLz-15" vertex="1">
          <mxGeometry y="26" width="190" height="26" as="geometry" />
        </mxCell>
        <mxCell id="WE6ekmEGEr7F3nznhlLz-17" value="" style="line;strokeWidth=1;fillColor=none;align=left;verticalAlign=middle;spacingTop=-1;spacingLeft=3;spacingRight=3;rotatable=0;labelPosition=right;points=[];portConstraint=eastwest;" parent="WE6ekmEGEr7F3nznhlLz-15" vertex="1">
          <mxGeometry y="52" width="190" height="8" as="geometry" />
        </mxCell>
        <mxCell id="WE6ekmEGEr7F3nznhlLz-18" value="+ getContentPane(): JPanel" style="text;strokeColor=none;fillColor=none;align=left;verticalAlign=top;spacingLeft=4;spacingRight=4;overflow=hidden;rotatable=0;points=[[0,0.5],[1,0.5]];portConstraint=eastwest;" parent="WE6ekmEGEr7F3nznhlLz-15" vertex="1">
          <mxGeometry y="60" width="190" height="26" as="geometry" />
        </mxCell>
        <mxCell id="WE6ekmEGEr7F3nznhlLz-22" value="Use" style="endArrow=open;endSize=12;dashed=1;html=1;" parent="1" edge="1">
          <mxGeometry width="160" relative="1" as="geometry">
            <mxPoint x="387" y="1600" as="sourcePoint" />
            <mxPoint x="550" y="1698" as="targetPoint" />
            <Array as="points">
              <mxPoint x="387" y="1650" />
              <mxPoint x="550" y="1650" />
            </Array>
          </mxGeometry>
        </mxCell>
        <mxCell id="WE6ekmEGEr7F3nznhlLz-23" value="Use" style="endArrow=open;endSize=12;dashed=1;html=1;exitX=0.5;exitY=0;exitDx=0;exitDy=0;entryX=1;entryY=0.5;entryDx=0;entryDy=0;" parent="1" source="Y6z0Pcbur20BkrsbBS4W-183" target="Y6z0Pcbur20BkrsbBS4W-285" edge="1">
          <mxGeometry width="160" relative="1" as="geometry">
            <mxPoint x="880" y="1320" as="sourcePoint" />
            <mxPoint x="1030" y="670" as="targetPoint" />
            <Array as="points">
              <mxPoint x="881" y="1300" />
              <mxPoint x="990" y="1300" />
              <mxPoint x="990" y="1010" />
              <mxPoint x="990" y="715" />
            </Array>
          </mxGeometry>
        </mxCell>
        <mxCell id="WE6ekmEGEr7F3nznhlLz-24" value="Use" style="endArrow=open;endSize=12;dashed=1;html=1;exitX=0.282;exitY=1.026;exitDx=0;exitDy=0;exitPerimeter=0;" parent="1" source="Y6z0Pcbur20BkrsbBS4W-186" edge="1">
          <mxGeometry x="0.0138" width="160" relative="1" as="geometry">
            <mxPoint x="670" y="1640" as="sourcePoint" />
            <mxPoint x="653" y="1700" as="targetPoint" />
            <Array as="points">
              <mxPoint x="776" y="1650" />
              <mxPoint x="651" y="1650" />
            </Array>
            <mxPoint as="offset" />
          </mxGeometry>
        </mxCell>
        <mxCell id="WE6ekmEGEr7F3nznhlLz-25" value="Use" style="endArrow=open;endSize=12;dashed=1;html=1;exitX=0.739;exitY=1.05;exitDx=0;exitDy=0;exitPerimeter=0;entryX=0.25;entryY=0;entryDx=0;entryDy=0;" parent="1" source="Y6z0Pcbur20BkrsbBS4W-196" target="Y6z0Pcbur20BkrsbBS4W-226" edge="1">
          <mxGeometry x="0.1627" width="160" relative="1" as="geometry">
            <mxPoint x="240" y="1240" as="sourcePoint" />
            <mxPoint x="520" y="1450" as="targetPoint" />
            <Array as="points">
              <mxPoint x="247" y="1300" />
              <mxPoint x="511" y="1300" />
            </Array>
            <mxPoint as="offset" />
          </mxGeometry>
        </mxCell>
        <mxCell id="WE6ekmEGEr7F3nznhlLz-26" value="Use" style="endArrow=open;endSize=12;dashed=1;html=1;exitX=0.254;exitY=1.02;exitDx=0;exitDy=0;exitPerimeter=0;" parent="1" source="Y6z0Pcbur20BkrsbBS4W-215" edge="1">
          <mxGeometry width="160" relative="1" as="geometry">
            <mxPoint x="580" y="1250" as="sourcePoint" />
            <mxPoint x="589" y="1700" as="targetPoint" />
            <Array as="points">
              <mxPoint x="741" y="1300" />
              <mxPoint x="589" y="1300" />
            </Array>
          </mxGeometry>
        </mxCell>
        <mxCell id="WE6ekmEGEr7F3nznhlLz-28" value="Extends" style="endArrow=block;endSize=16;endFill=0;html=1;exitX=0.575;exitY=1.02;exitDx=0;exitDy=0;exitPerimeter=0;" parent="1" source="Y6z0Pcbur20BkrsbBS4W-215" edge="1">
          <mxGeometry width="160" relative="1" as="geometry">
            <mxPoint x="550" y="1250" as="sourcePoint" />
            <mxPoint x="402" y="1350" as="targetPoint" />
            <Array as="points">
              <mxPoint x="831" y="1260" />
              <mxPoint x="402" y="1260" />
            </Array>
          </mxGeometry>
        </mxCell>
        <mxCell id="WE6ekmEGEr7F3nznhlLz-29" value="Extends" style="endArrow=block;endSize=16;endFill=0;html=1;exitX=0.468;exitY=1.013;exitDx=0;exitDy=0;exitPerimeter=0;entryX=0.5;entryY=0;entryDx=0;entryDy=0;" parent="1" source="Y6z0Pcbur20BkrsbBS4W-204" target="Y6z0Pcbur20BkrsbBS4W-179" edge="1">
          <mxGeometry width="160" relative="1" as="geometry">
            <mxPoint x="270" y="1290" as="sourcePoint" />
            <mxPoint x="430" y="1290" as="targetPoint" />
            <Array as="points">
              <mxPoint x="480" y="1220" />
              <mxPoint x="451" y="1220" />
              <mxPoint x="300" y="1220" />
            </Array>
          </mxGeometry>
        </mxCell>
        <mxCell id="WE6ekmEGEr7F3nznhlLz-30" value="Extends" style="endArrow=block;endSize=16;endFill=0;html=1;exitX=0.464;exitY=1.025;exitDx=0;exitDy=0;exitPerimeter=0;" parent="1" source="Y6z0Pcbur20BkrsbBS4W-196" edge="1">
          <mxGeometry x="-0.1842" width="160" relative="1" as="geometry">
            <mxPoint x="340" y="1260" as="sourcePoint" />
            <mxPoint x="170" y="1349" as="targetPoint" />
            <mxPoint as="offset" />
          </mxGeometry>
        </mxCell>
        <mxCell id="WE6ekmEGEr7F3nznhlLz-32" value="Use" style="endArrow=open;endSize=12;dashed=1;html=1;entryX=0.5;entryY=1;entryDx=0;entryDy=0;" parent="1" source="Y6z0Pcbur20BkrsbBS4W-201" target="Y6z0Pcbur20BkrsbBS4W-285" edge="1">
          <mxGeometry width="160" relative="1" as="geometry">
            <mxPoint x="480" y="810" as="sourcePoint" />
            <mxPoint x="640" y="810" as="targetPoint" />
          </mxGeometry>
        </mxCell>
        <mxCell id="WE6ekmEGEr7F3nznhlLz-33" value="Use" style="endArrow=open;endSize=12;dashed=1;html=1;exitX=0.5;exitY=0;exitDx=0;exitDy=0;entryX=0.25;entryY=1;entryDx=0;entryDy=0;" parent="1" source="Y6z0Pcbur20BkrsbBS4W-193" target="Y6z0Pcbur20BkrsbBS4W-285" edge="1">
          <mxGeometry width="160" relative="1" as="geometry">
            <mxPoint x="180" y="980" as="sourcePoint" />
            <mxPoint x="340" y="980" as="targetPoint" />
            <Array as="points">
              <mxPoint x="180" y="920" />
              <mxPoint x="387" y="920" />
            </Array>
          </mxGeometry>
        </mxCell>
        <mxCell id="WE6ekmEGEr7F3nznhlLz-34" value="Use" style="endArrow=open;endSize=12;dashed=1;html=1;exitX=0.5;exitY=0;exitDx=0;exitDy=0;" parent="1" source="Y6z0Pcbur20BkrsbBS4W-212" edge="1">
          <mxGeometry width="160" relative="1" as="geometry">
            <mxPoint x="670" y="920" as="sourcePoint" />
            <mxPoint x="600" y="810" as="targetPoint" />
            <Array as="points">
              <mxPoint x="810" y="920" />
              <mxPoint x="600" y="920" />
            </Array>
          </mxGeometry>
        </mxCell>
        <mxCell id="WE6ekmEGEr7F3nznhlLz-39" value="" style="endArrow=diamondThin;endFill=1;endSize=24;html=1;entryX=-0.001;entryY=0.276;entryDx=0;entryDy=0;entryPerimeter=0;exitX=0.999;exitY=0.36;exitDx=0;exitDy=0;exitPerimeter=0;" parent="1" source="Y6z0Pcbur20BkrsbBS4W-182" target="Y6z0Pcbur20BkrsbBS4W-186" edge="1">
          <mxGeometry width="160" relative="1" as="geometry">
            <mxPoint x="480" y="1510" as="sourcePoint" />
            <mxPoint x="630" y="1480" as="targetPoint" />
          </mxGeometry>
        </mxCell>
        <mxCell id="WE6ekmEGEr7F3nznhlLz-42" value="" style="endArrow=diamondThin;endFill=1;endSize=24;html=1;exitX=0.5;exitY=0;exitDx=0;exitDy=0;" parent="1" source="Y6z0Pcbur20BkrsbBS4W-266" edge="1">
          <mxGeometry width="160" relative="1" as="geometry">
            <mxPoint x="500" y="1960" as="sourcePoint" />
            <mxPoint x="600" y="1850" as="targetPoint" />
          </mxGeometry>
        </mxCell>
        <mxCell id="WE6ekmEGEr7F3nznhlLz-43" value="Use" style="endArrow=open;endSize=12;dashed=1;html=1;exitX=0.5;exitY=0;exitDx=0;exitDy=0;" parent="1" source="Y6z0Pcbur20BkrsbBS4W-307" edge="1">
          <mxGeometry width="160" relative="1" as="geometry">
            <mxPoint x="1030" y="1840" as="sourcePoint" />
            <mxPoint x="988" y="1600" as="targetPoint" />
            <Array as="points">
              <mxPoint x="1395" y="1790" />
              <mxPoint x="988" y="1790" />
            </Array>
          </mxGeometry>
        </mxCell>
        <mxCell id="WE6ekmEGEr7F3nznhlLz-44" value="Use" style="endArrow=open;endSize=12;dashed=1;html=1;exitX=0.174;exitY=-0.006;exitDx=0;exitDy=0;exitPerimeter=0;" parent="1" source="Y6z0Pcbur20BkrsbBS4W-307" edge="1">
          <mxGeometry width="160" relative="1" as="geometry">
            <mxPoint x="1120" y="1720" as="sourcePoint" />
            <mxPoint x="251" y="1600" as="targetPoint" />
            <Array as="points">
              <mxPoint x="1222" y="1680" />
              <mxPoint x="1222" y="1670" />
              <mxPoint x="251" y="1670" />
            </Array>
          </mxGeometry>
        </mxCell>
        <mxCell id="WE6ekmEGEr7F3nznhlLz-45" value="Use" style="endArrow=open;endSize=12;dashed=1;html=1;exitX=1.003;exitY=0.368;exitDx=0;exitDy=0;entryX=-0.012;entryY=0.769;entryDx=0;entryDy=0;exitPerimeter=0;entryPerimeter=0;" parent="1" source="Y6z0Pcbur20BkrsbBS4W-186" target="x0OXfMmSiJZp11NWUhel-5" edge="1">
          <mxGeometry width="160" relative="1" as="geometry">
            <mxPoint x="1130" y="1410" as="sourcePoint" />
            <mxPoint x="1122" y="1488" as="targetPoint" />
          </mxGeometry>
        </mxCell>
        <mxCell id="WE6ekmEGEr7F3nznhlLz-47" value="Use" style="endArrow=open;endSize=12;dashed=1;html=1;exitX=0.494;exitY=1.077;exitDx=0;exitDy=0;exitPerimeter=0;entryX=0.453;entryY=0.006;entryDx=0;entryDy=0;entryPerimeter=0;" parent="1" source="x0OXfMmSiJZp11NWUhel-7" target="Y6z0Pcbur20BkrsbBS4W-307" edge="1">
          <mxGeometry width="160" relative="1" as="geometry">
            <mxPoint x="1350" y="1650" as="sourcePoint" />
            <mxPoint x="1510" y="1650" as="targetPoint" />
          </mxGeometry>
        </mxCell>
        <mxCell id="WE6ekmEGEr7F3nznhlLz-48" value="Use" style="endArrow=open;endSize=12;dashed=1;html=1;exitX=0.516;exitY=1;exitDx=0;exitDy=0;exitPerimeter=0;" parent="1" source="WE6ekmEGEr7F3nznhlLz-18" edge="1">
          <mxGeometry width="160" relative="1" as="geometry">
            <mxPoint x="1491" y="1326" as="sourcePoint" />
            <mxPoint x="1510" y="1847" as="targetPoint" />
          </mxGeometry>
        </mxCell>
        <mxCell id="WE6ekmEGEr7F3nznhlLz-49" value="Use" style="endArrow=open;endSize=12;dashed=1;html=1;exitX=0;exitY=0.5;exitDx=0;exitDy=0;entryX=0.457;entryY=0.008;entryDx=0;entryDy=0;entryPerimeter=0;" parent="1" source="WE6ekmEGEr7F3nznhlLz-16" target="Y6z0Pcbur20BkrsbBS4W-183" edge="1">
          <mxGeometry width="160" relative="1" as="geometry">
            <mxPoint x="1160" y="1240" as="sourcePoint" />
            <mxPoint x="810" y="1278" as="targetPoint" />
            <Array as="points">
              <mxPoint x="860" y="1278" />
            </Array>
          </mxGeometry>
        </mxCell>
        <mxCell id="WE6ekmEGEr7F3nznhlLz-50" value="Use" style="endArrow=open;endSize=12;dashed=1;html=1;exitX=0;exitY=0.5;exitDx=0;exitDy=0;" parent="1" source="WE6ekmEGEr7F3nznhlLz-18" edge="1">
          <mxGeometry width="160" relative="1" as="geometry">
            <mxPoint x="1070" y="1230" as="sourcePoint" />
            <mxPoint x="270" y="1350" as="targetPoint" />
            <Array as="points">
              <mxPoint x="270" y="1320" />
            </Array>
          </mxGeometry>
        </mxCell>
      </root>
    </mxGraphModel>
  </diagram>
</mxfile>
